# xmcd
#
# Track frame offsets:
#	300
#	15138
#	33464
#	52052
#	69204
#	87806
#	107871
#	126271
#	143022
#	162529
#	179707
#	195725
#	212658
#	231489
#	246625
#
# Disc length: 3515 seconds
#
# Revision: 1
# Processed by: cddbd v1.5.2PL0 Copyright (c) Steve Scherf et al.
# Submitted via: audiograbber 1.83.01
#
DISCID=dd0db70f
DTITLE=Karaoke - CB9159
DYEAR=1900
DGENRE=
TTITLE0=Lonestar - No Nerws
TTITLE1=Lonestar - Unusually Usual
TTITLE2=Lonestar - Amazed
TTITLE3=Lonestar - Come Cryin to Me
TTITLE4=Lonestar - Everything's Changed
TTITLE5=Lonestar - I'm Already There
TTITLE6=Lonestar - You Walked In
TTITLE7=Lonestar - My Front Porch Lookin In
TTITLE8=Lonestar - Not A Day Goes By
TTITLE9=Lonestar - Saturday Night
TTITLE10=Lonestar - Say When
TTITLE11=Lonestar - Smile
TTITLE12=Lonestar - Tell Her
TTITLE13=Lonestar - Tequila Talkin
TTITLE14=Lonestar - What About Now
EXTD=
EXTT0=
EXTT1=
EXTT2=
EXTT3=
EXTT4=
EXTT5=
EXTT6=
EXTT7=
EXTT8=
EXTT9=
EXTT10=
EXTT11=
EXTT12=
EXTT13=
EXTT14=
PLAYORDER=
